<svg width="1080" height="1080" viewBox="0 0 1080 1080" fill="none" xmlns="http://www.w3.org/2000/svg">
<rect width="1080" height="1080" fill="white"/>
<path d="M963.694 621.541H961.201L959.278 617.03H951.04L949.093 621.541H946.719L954.007 604.922H956.5L963.694 621.541ZM955.195 607.439L951.871 615.131H958.471L955.195 607.439Z" fill="#FFAD01"/>
<path d="M930.541 619.906C932.797 619.906 934.934 618.79 935.693 616.582H937.949C937.023 619.929 934.221 621.805 930.541 621.805H930.446L930.09 622.992C932.061 622.683 933.367 623.348 933.367 624.749C933.367 626.15 931.966 627.028 930.28 627.028C929.544 627.028 928.903 626.886 928.333 626.577V625.343C928.927 625.675 929.497 625.841 930.043 625.841C930.969 625.841 931.705 625.509 931.705 624.868C931.705 624.322 931.301 624.013 930.518 623.966C929.734 623.918 928.998 624.037 928.333 624.298L929.164 621.71C926.98 621.401 925.223 620.452 923.87 618.861C922.517 617.27 921.828 615.395 921.828 613.258C921.828 610.884 922.635 608.866 924.274 607.204C925.912 605.542 928.001 604.711 930.541 604.711C934.221 604.711 937.023 606.587 937.949 609.934H935.693C934.934 607.726 932.797 606.61 930.541 606.61C928.713 606.61 927.241 607.251 926.078 608.51C924.915 609.792 924.321 611.382 924.321 613.258C924.321 615.134 924.915 616.724 926.078 617.983C927.241 619.265 928.713 619.906 930.541 619.906Z" fill="#FFAD01"/>
<path d="M908.942 617.647V604.922H911.198V621.541H909.417L897.427 608.816V621.541H895.172V604.922H896.953L908.942 617.647Z" fill="#FFAD01"/>
<path d="M885.585 621.541H883.092L881.169 617.03H872.93L870.984 621.541H868.609L875.898 604.922H878.391L885.585 621.541ZM877.085 607.439L873.761 615.131H880.362L877.085 607.439Z" fill="#FFAD01"/>
<path d="M856.648 621.541V604.922H858.904V621.541H856.648Z" fill="#FFAD01"/>
<path d="M846.239 604.922V606.821H836.552V612.401H846.002V614.3H836.552V621.541H834.297V604.922H836.552H846.239Z" fill="#FFAD01"/>
<path d="M820.708 617.647V604.922H822.963V621.541H821.183L809.193 608.816V621.541H806.938V604.922H808.718L820.708 617.647Z" fill="#FFAD01"/>
<path d="M781.445 607.204C783.084 605.542 785.173 604.711 787.713 604.711C790.254 604.711 792.343 605.542 793.981 607.204C795.619 608.866 796.426 610.884 796.426 613.258C796.426 615.632 795.619 617.65 793.981 619.312C792.343 620.974 790.254 621.805 787.713 621.805C785.173 621.805 783.084 620.974 781.445 619.312C779.807 617.65 779 615.632 779 613.258C779 610.884 779.807 608.866 781.445 607.204ZM783.25 617.983C784.413 619.265 785.909 619.906 787.713 619.906C789.518 619.906 791.013 619.265 792.177 617.983C793.34 616.724 793.934 615.134 793.934 613.258C793.934 611.382 793.34 609.792 792.177 608.51C791.013 607.251 789.518 606.61 787.713 606.61C785.909 606.61 784.413 607.251 783.25 608.51C782.086 609.792 781.493 611.382 781.493 613.258C781.493 615.134 782.086 616.724 783.25 617.983Z" fill="#FFAD01"/>
<path d="M761.877 619.906C764.133 619.906 766.27 618.79 767.029 616.582H769.285C768.359 619.929 765.557 621.805 761.877 621.805C759.337 621.805 757.248 620.974 755.609 619.312C753.971 617.65 753.164 615.632 753.164 613.258C753.164 610.884 753.971 608.866 755.609 607.204C757.248 605.542 759.337 604.711 761.877 604.711C765.557 604.711 768.359 606.587 769.285 609.934H767.029C766.27 607.726 764.133 606.61 761.877 606.61C760.049 606.61 758.577 607.251 757.414 608.51C756.25 609.792 755.657 611.382 755.657 613.258C755.657 615.134 756.25 616.724 757.414 617.983C758.577 619.265 760.049 619.906 761.877 619.906Z" fill="#FFAD01"/>
<path d="M719.857 613.825V619.642H730.256V621.541H717.839H717.602V604.922H719.857H730.019V606.821H719.857V611.926H729.306V613.825H719.857Z" fill="#FFAD01"/>
<path d="M693.904 604.922H697.845C700.575 604.922 702.783 605.658 704.469 607.13C706.155 608.626 706.986 610.644 706.986 613.231C706.986 615.819 706.155 617.837 704.469 619.309C702.783 620.805 700.575 621.541 697.845 621.541H691.886H691.648V604.922H693.904ZM693.904 619.642H697.608C699.697 619.642 701.359 619.072 702.617 617.956C703.875 616.84 704.493 615.25 704.493 613.231C704.493 611.213 703.875 609.623 702.617 608.507C701.359 607.391 699.697 606.821 697.608 606.821H693.904V619.642Z" fill="#FFAD01"/>
<path d="M653.031 607.204C654.67 605.542 656.759 604.711 659.299 604.711C661.84 604.711 663.929 605.542 665.567 607.204C667.205 608.866 668.012 610.884 668.012 613.258C668.012 615.632 667.205 617.65 665.567 619.312C663.929 620.974 661.84 621.805 659.299 621.805C656.759 621.805 654.67 620.974 653.031 619.312C651.393 617.65 650.586 615.632 650.586 613.258C650.586 610.884 651.393 608.866 653.031 607.204ZM654.836 617.983C655.999 619.265 657.495 619.906 659.299 619.906C661.104 619.906 662.599 619.265 663.763 617.983C664.926 616.724 665.52 615.134 665.52 613.258C665.52 611.382 664.926 609.792 663.763 608.51C662.599 607.251 661.104 606.61 659.299 606.61C657.495 606.61 655.999 607.251 654.836 608.51C653.672 609.792 653.079 611.382 653.079 613.258C653.079 615.134 653.672 616.724 654.836 617.983Z" fill="#FFAD01"/>
<path d="M637.83 611.926V604.922H640.085V621.541H637.83V613.825H626.552V621.541H624.297V604.922H626.552V611.926H637.83Z" fill="#FFAD01"/>
<path d="M610.7 617.647V604.922H612.955V621.541H611.175L599.185 608.816V621.541H596.93V604.922H598.71L610.7 617.647Z" fill="#FFAD01"/>
<path d="M583.195 621.541V604.922H585.451V621.541H583.195Z" fill="#FFAD01"/>
<path d="M559.498 604.922H563.439C566.169 604.922 568.377 605.658 570.063 607.13C571.748 608.626 572.579 610.644 572.579 613.231C572.579 615.819 571.748 617.837 570.063 619.309C568.377 620.805 566.169 621.541 563.439 621.541H557.48H557.242V604.922H559.498ZM559.498 619.642H563.201C565.291 619.642 566.953 619.072 568.211 617.956C569.469 616.84 570.086 615.25 570.086 613.231C570.086 611.213 569.469 609.623 568.211 608.507C566.953 607.391 565.291 606.821 563.201 606.821H559.498V619.642Z" fill="#FFAD01"/>
<path d="M547.514 621.541H545.022L543.098 617.03H534.86L532.913 621.541H530.539L537.828 604.922H540.321L547.514 621.541ZM539.015 607.439L535.691 615.131H542.291L539.015 607.439Z" fill="#FFAD01"/>
<path d="M514.346 619.906C516.601 619.906 518.738 618.79 519.498 616.582H521.753C520.828 619.929 518.026 621.805 514.346 621.805C511.806 621.805 509.716 620.974 508.078 619.312C506.44 617.65 505.633 615.632 505.633 613.258C505.633 610.884 506.44 608.866 508.078 607.204C509.716 605.542 511.806 604.711 514.346 604.711C518.026 604.711 520.828 606.587 521.753 609.934H519.498C518.738 607.726 516.601 606.61 514.346 606.61C512.518 606.61 511.046 607.251 509.883 608.51C508.719 609.792 508.126 611.382 508.126 613.258C508.126 615.134 508.719 616.724 509.883 617.983C511.046 619.265 512.518 619.906 514.346 619.906Z" fill="#FFAD01"/>
<path d="M492.868 615.843L496.88 621.541H494.269L490.707 616.555C490.161 615.819 489.639 615.297 489.093 615.036C488.547 614.775 487.669 614.656 486.505 614.656H484.701V621.541H482.445V604.922H484.701H488.927C493.01 604.922 495.456 606.536 495.456 609.789C495.456 612.139 494.031 613.588 491.182 614.181C491.8 614.585 492.369 615.131 492.868 615.843ZM484.701 606.821V612.757H488.452C491.752 612.757 493.082 611.949 493.082 609.789C493.082 607.628 491.752 606.821 488.452 606.821H484.701Z" fill="#FFAD01"/>
<path d="M461.302 613.825V619.642H471.701V621.541H459.284H459.047V604.922H461.302H471.464V606.821H461.302V611.926H470.752V613.825H461.302Z" fill="#FFAD01"/>
<path d="M438.277 616.698L445.898 604.922H447.703V621.541H445.447V609.86L438.752 619.974H437.802L431.107 609.86V621.541H428.852V604.922H430.656L438.277 616.698Z" fill="#FFAD01"/>
<path d="M402.381 614.3V604.922H404.636V614.537C404.636 616.555 403.995 618.265 402.713 619.666C401.431 621.066 399.603 621.779 397.205 621.779C394.807 621.779 392.955 621.066 391.673 619.666C390.391 618.265 389.75 616.555 389.75 614.537V604.922H392.005V614.3C392.005 615.867 392.433 617.196 393.288 618.265C394.142 619.333 395.448 619.879 397.205 619.879C398.962 619.879 400.268 619.333 401.122 618.265C401.953 617.196 402.381 615.867 402.381 614.3Z" fill="#FFAD01"/>
<path d="M368.732 613.825V619.642H379.131V621.541H366.714H366.477V604.922H368.732H378.894V606.821H368.732V611.926H378.181V613.825H368.732Z" fill="#FFAD01"/>
<path d="M345.279 609.222C345.279 610.48 346.442 611.359 347.985 611.715C348.769 611.905 349.6 612.118 350.502 612.38C353.113 613.044 355.725 613.97 355.725 616.985C355.725 618.529 355.108 619.716 353.897 620.547C352.686 621.378 351.095 621.805 349.125 621.805C345.397 621.805 342.738 620.214 342.43 617.057H344.685C344.994 619.075 346.774 619.906 349.054 619.906C351.452 619.906 353.232 618.98 353.232 617.27C353.232 613.116 342.905 615.466 342.905 609.388C342.905 607.892 343.522 606.753 344.733 605.922C345.943 605.115 347.415 604.711 349.149 604.711C352.567 604.711 355.037 606.444 355.488 609.222H353.232C352.757 607.607 351.357 606.61 349.196 606.61C346.941 606.61 345.279 607.679 345.279 609.222Z" fill="#FFAD01"/>
<path d="M931.702 579.798C924.786 579.798 918.94 578.433 914.163 575.704C909.387 572.943 905.774 568.958 903.324 563.747C900.874 558.506 899.648 552.179 899.648 544.766C899.648 537.323 900.858 530.996 903.277 525.785C905.727 520.544 909.341 516.559 914.117 513.829C918.893 511.069 924.739 509.689 931.656 509.689C938.572 509.689 944.418 511.069 949.194 513.829C953.971 516.559 957.584 520.544 960.034 525.785C962.484 530.996 963.709 537.323 963.709 544.766C963.709 552.179 962.484 558.506 960.034 563.747C957.584 568.958 953.971 572.943 949.194 575.704C944.418 578.433 938.587 579.798 931.702 579.798ZM931.656 568.911C938.789 568.911 944.294 566.88 948.171 562.817C952.048 558.754 953.986 552.737 953.986 544.766C953.986 536.796 952.048 530.779 948.171 526.716C944.294 522.653 938.789 520.621 931.656 520.621C924.522 520.621 919.017 522.653 915.14 526.716C911.294 530.779 909.372 536.796 909.372 544.766C909.372 552.737 911.294 558.754 915.14 562.817C919.017 566.88 924.522 568.911 931.656 568.911ZM916.815 500.756C921.064 498.803 925.375 495.655 929.748 491.312H933.61C938.076 495.686 942.387 498.834 946.543 500.756L941.611 506.06C936.897 502.865 933.579 499.175 931.656 494.988C929.702 499.206 926.399 502.897 921.746 506.06L916.815 500.756Z" fill="#FFAD01"/>
<path d="M846.406 579.804C840.699 579.804 835.83 578.858 831.798 576.966C827.766 575.043 824.727 572.392 822.68 569.011C820.633 565.63 819.609 561.738 819.609 557.334C819.609 555.628 819.78 553.783 820.121 551.798L829.426 549.379C828.836 551.302 828.542 553.069 828.542 554.682C828.542 557.38 829.224 559.8 830.589 561.94C831.984 564.08 834.031 565.77 836.73 567.011C839.459 568.251 842.746 568.871 846.592 568.871C850.159 568.871 853.074 568.391 855.338 567.429C857.633 566.437 859.293 565.134 860.316 563.521C861.371 561.909 861.898 560.125 861.898 558.171C861.898 556.031 861.448 554.201 860.549 552.682C859.68 551.162 858.223 549.875 856.176 548.82C854.129 547.735 851.384 546.866 847.941 546.215L839.242 544.82C833.101 543.858 828.495 541.889 825.425 538.911C822.385 535.934 820.865 532.228 820.865 527.792C820.865 523.885 821.873 520.581 823.889 517.883C825.905 515.154 828.681 513.107 832.217 511.742C835.753 510.378 839.831 509.695 844.452 509.695C849.446 509.695 853.865 510.486 857.711 512.068C861.588 513.619 864.643 516.084 866.876 519.465C869.14 522.815 870.272 527.048 870.272 532.165C870.272 533.623 870.179 535.143 869.993 536.725L860.456 539.283C861.014 537.143 861.293 535.236 861.293 533.561C861.293 530.398 860.456 527.854 858.781 525.932C857.137 523.978 855.028 522.597 852.454 521.791C849.88 520.954 847.104 520.535 844.127 520.535C841.149 520.535 838.637 520.954 836.59 521.791C834.574 522.597 833.07 523.714 832.077 525.141C831.085 526.536 830.589 528.149 830.589 529.979C830.589 532.739 831.442 535.003 833.147 536.771C834.853 538.539 837.846 539.826 842.126 540.633L850.407 541.982C857.789 543.191 863.185 545.331 866.597 548.402C870.008 551.441 871.714 555.365 871.714 560.172C871.714 564.297 870.598 567.848 868.365 570.825C866.131 573.772 863.092 576.005 859.246 577.525C855.4 579.044 851.12 579.804 846.406 579.804Z" fill="#FFAD01"/>
<path d="M722.937 511.461L759.504 566.45H759.736L759.597 565.054C759.318 562.046 759.178 559.286 759.178 556.773V511.554L769.692 511.461V578.081H759.69L722.844 523.185H722.612L722.751 524.72C722.968 527.542 723.077 529.961 723.077 531.977V578.081H712.609V511.461H722.937Z" fill="#13532F"/>
<path d="M668.156 578.081V511.461H678.763V578.081H668.156Z" fill="#13532F"/>
<path d="M605.986 578.081V522.394H583.562V511.461H638.97V522.394H616.593V578.081H605.986Z" fill="#13532F"/>
<path d="M547.896 578.081C547.4 576.964 546.935 575.661 546.501 574.173C546.097 572.684 545.632 570.435 545.105 567.427L544.268 562.542C543.461 558.231 541.957 554.99 539.755 552.819C537.553 550.648 534.389 549.563 530.264 549.563H514.959V578.081H504.352V511.461H534.172C541.244 511.461 546.749 512.95 550.688 515.927C554.657 518.904 556.642 523.557 556.642 529.884C556.642 535.032 555.138 539.064 552.13 541.979C549.121 544.895 544.624 546.585 538.638 547.05L538.685 547.19C543.027 547.624 546.454 549.004 548.966 551.33C551.509 553.657 553.153 556.851 553.898 560.914L554.828 566.264C555.541 570.42 556.658 574.359 558.178 578.081H547.896ZM533.428 544.538C537.863 544.538 541.244 543.608 543.57 541.747C545.896 539.855 547.059 536.847 547.059 532.722C547.059 528.907 545.865 526.239 543.477 524.72C541.089 523.169 537.708 522.394 533.335 522.394H514.959V544.538H533.428Z" fill="#13532F"/>
<path d="M426.406 511.461H473.254V522.161H437.013V541.142H466.369V545.841L437.013 545.794V567.474H473.487V578.081H426.406V511.461Z" fill="#13532F"/>
<path d="M343.992 511.461H370.835C379.333 511.461 385.723 513.198 390.003 516.671C394.283 520.114 396.423 525.294 396.423 532.21C396.423 538.754 394.205 543.716 389.77 547.097C385.335 550.446 378.992 552.121 370.742 552.121H354.599V578.081H343.992V511.461ZM370.882 547.097C375.844 547.097 379.752 546.042 382.606 543.933C385.49 541.793 386.932 538.645 386.932 534.489C386.932 530.178 385.583 527.092 382.885 525.231C380.186 523.34 376.573 522.394 372.045 522.394H354.599V547.097H370.882Z" fill="#13532F"/>
<path d="M279.463 556.861C280.77 556.415 284.488 555.319 285.028 553.998C283.647 551.719 279.177 555.609 277.616 556.241C276.67 556.051 275.385 556.09 274.626 555.711L274.821 555.403C274.053 555.148 274.008 554.934 273.872 554.247L272.434 555.232C271.352 555.226 270.223 555.29 269.195 554.969C268.661 555.252 268.68 555.213 268.355 555.716C268.535 556.157 268.423 556.017 268.592 556.201C269.539 556.265 271.723 556.33 272.339 556.858L273.476 556.515C273.614 556.714 273.73 556.926 273.904 557.067C274.92 556.867 276.645 557.332 277.74 557.546C278.187 558.753 278.385 559.322 279.048 560.46C279.714 559.763 279.769 559.648 280.622 559.26C280.502 559.021 280.357 558.751 280.233 558.513C281.038 557.959 283.076 558.742 283.498 559.404C283.867 559.371 284.688 559.448 285.094 559.473C286.228 559.841 287.596 560.24 288.672 560.71L289.557 563.448C289.727 562.252 289.233 561.915 289.682 561.225L290.352 561.437C291.564 561.799 292.966 562.634 294.069 563.297L294.334 564.8L294.658 564.254C295.336 564.081 294.978 564.1 295.794 564.515C297.212 564.998 298.043 565.72 299.171 566.699C299.669 568.78 300.075 571.495 301.778 572.873L302.258 572.893C303.11 571.634 301.711 568.984 301.08 567.787C300.332 567.08 300.153 567.163 300.013 566.364C299.183 565.029 298.429 564.838 297.002 564.06L296.936 563.676L294.399 562.002C295.906 562.047 299.565 562.48 300.314 560.984L299.971 560.594C297.602 559.759 295.592 560.598 293.285 561.319C292.113 560.87 290.938 560.431 289.759 560.002C291.569 559.652 294.13 559.686 295.636 558.83L295.769 558.152C294.89 555.844 290.065 558.516 288.6 559.263L285.161 558.098C286.596 557.782 289.741 557.398 290.276 555.845C288.753 554.28 284.834 556.546 283.43 557.647C281.929 557.279 280.992 557.069 279.463 556.861Z" fill="#FFAD01"/>
<path d="M266.86 568.778C268.277 568.792 271.653 569.055 272.652 567.996C271.908 565.96 266.791 567.327 265.233 567.914L262.288 566.334C262 566.254 261.187 565.774 260.758 565.606C257.76 563.352 248.278 560.82 244.566 560.325L244.398 560.607C244.763 561.066 244.618 560.947 245.093 561.226C249.897 562.378 255.572 563.968 259.94 566.355C259.915 568.426 260.063 571.577 262.038 572.797L262.447 572.711C263.095 571.495 262.426 569.797 262.036 568.52C261.926 568.158 261.814 567.796 261.697 567.436L264.676 568.98C264.582 570.756 264.585 574.802 266.338 575.737C267.915 575.189 266.484 570.923 266.153 569.664C267.03 570.34 268.053 571.071 268.816 571.853C268.86 573.77 268.638 577.988 270.121 579.254L270.533 579.196C271.693 577.479 270.681 574.064 269.997 572.236C270.793 572.84 272.118 573.983 272.647 574.813C273.458 574.205 273.027 574.349 273.935 574.238C273.153 573.239 272.459 572.698 271.507 571.883C272.904 572.049 276.511 572.715 277.599 571.743C277.18 569.59 271.51 570.542 269.936 570.873C269.046 570.165 267.827 569.415 266.86 568.778Z" fill="#FFAD01"/>
<path d="M271.503 571.878C270.965 571.687 270.572 571.683 270.04 571.9L269.993 572.23C270.789 572.834 272.113 573.977 272.643 574.807C273.454 574.199 273.023 574.343 273.931 574.233C273.149 573.233 272.455 572.693 271.503 571.878Z" fill="#FFAD01"/>
<path d="M282.338 583.742C283.846 584.424 286.285 585.821 287.846 585.493L288.044 585.151C287.332 583.287 283.412 581.701 281.541 581.994C281.095 583.034 280.899 582.932 280.525 583.622C280.343 585.655 279.544 590.94 281.316 592.11L281.719 591.85C282.74 589.622 282.138 586.835 281.786 584.473L283.859 587.803C284.082 590.933 282.86 594.19 283.71 596.421C284.32 597.015 283.971 596.869 284.764 596.94C285.617 596.125 285.868 593.589 285.95 592.408L286.29 592.521C287.228 594.517 287.097 600.155 289.119 601.181C289.863 601.112 289.558 601.259 290.075 600.744C290.537 598.783 288.972 595.948 288.068 594.261C288.98 594.746 290.181 595.63 291.179 595.188C291.073 593.349 286.717 591.279 285.05 588.941L284.855 588.665C286.112 589.273 288.771 590.789 289.975 590.45L290.13 590.041C289.545 587.568 286.484 587.894 284.752 586.59C284.082 586.086 282.894 584.467 282.338 583.742Z" fill="#FFAD01"/>
<path d="M279.337 579.268C281.029 579.74 283.716 580.695 285.319 580.187L285.41 579.769C283.535 577.998 280.418 577.668 277.936 577.691L277.096 577.615C276.76 578.069 276.886 577.816 276.848 578.442C276.498 580.782 276.223 585.082 277.579 587.058L278.047 587.243C279.518 585.918 278.381 581.416 278.037 579.606C277.959 579.132 277.941 579.375 278.13 578.88C278.574 579.004 278.902 579.112 279.337 579.268Z" fill="#FFAD01"/>
<path d="M275.907 575.504C277.204 575.863 280.564 576.958 281.381 575.607C280.292 573.522 275.945 573.805 273.935 574.228C273.027 574.338 273.458 574.194 272.647 574.802C272.782 577.278 272.721 581.101 274.186 583.041L274.539 583.155C275.64 581.248 274.608 577.736 274.127 575.646C274.85 575.654 275.22 575.323 275.907 575.504Z" fill="#FFAD01"/>
<path d="M304.451 568.744C305.621 568.961 307.826 569.703 308.378 568.374C307.474 566.842 305.09 567.101 303.566 567.11C302.009 566.93 301.466 566.709 300.18 565.819L300.07 566.347C300.21 567.146 300.389 567.063 301.137 567.77C302.91 568.38 303.01 568.662 304.02 570.274C304.451 571.597 306.539 574.307 308.251 573.9C309.29 572.242 305.597 569.641 304.451 568.744Z" fill="#FFAD01"/>
<path d="M303.526 567.126C301.968 566.946 301.426 566.725 300.139 565.835L300.03 566.364C300.169 567.162 300.349 567.08 301.097 567.786C302.869 568.396 302.969 568.678 303.979 570.29C303.899 568.693 303.495 569.171 303.048 567.878L303.526 567.126Z" fill="#FFAD01"/>
<path d="M269.305 555.099C270.72 554.227 272.482 553.119 273.314 551.694L273.271 551.236C270.708 549.808 268.747 555.123 265.113 555.062L266.376 555.632C265.795 555.971 266.118 555.87 265.426 556.024C267.823 556.173 267.99 559.282 269.713 560.745C270.397 561.326 271.117 561.748 271.794 561.005C271.676 559.663 269.672 557.274 268.729 556.116C268.56 555.932 268.656 556.118 268.476 555.677C268.801 555.174 268.771 555.382 269.305 555.099Z" fill="#FFAD01"/>
<path d="M290.386 561.431L289.717 561.219C289.267 561.909 289.761 562.246 289.591 563.442C289.951 564.744 291.628 568.339 293.276 567.733C293.875 566.163 291.323 562.811 290.386 561.431Z" fill="#FFAD01"/>
<path d="M285.116 559.448C284.71 559.424 283.889 559.346 283.52 559.379C284.06 561.077 285.485 565.011 287.5 565.215C288.877 564.103 285.864 560.468 285.116 559.448Z" fill="#FFAD01"/>
<path d="M300.153 565.829C300.065 565.704 299.955 565.429 299.887 565.278C301.163 564.692 304.671 566.039 305.391 564.805L305.151 564.274C302.888 562.31 299.673 564.535 296.966 563.668L297.032 564.052C298.459 564.831 299.213 565.021 300.043 566.357L300.153 565.829Z" fill="#FFAD01"/>
<path d="M273.508 556.535L272.37 556.878C272.813 558.35 275.465 563.235 277.248 561.638C277.308 560.001 275.071 558.164 273.935 557.088C273.762 556.946 273.645 556.734 273.508 556.535Z" fill="#FFAD01"/>
<path d="M295.828 564.516C295.011 564.101 295.369 564.082 294.691 564.255L294.368 564.801C294.649 566.024 295.89 570.611 297.634 570.05C298.352 568.57 296.537 565.805 295.828 564.516Z" fill="#FFAD01"/>
<path d="M262.283 566.34C263.713 565.752 266.973 566.057 267.912 564.776C266.33 563.164 262.348 564.472 260.754 565.613C261.183 565.78 261.995 566.26 262.283 566.34Z" fill="#FFAD01"/>
<path d="M274.836 555.417C275.997 554.969 279.396 553.905 278.792 552.25C277.299 551.456 275.024 553.429 273.887 554.261C274.023 554.948 274.068 555.162 274.836 555.417Z" fill="#FFAD01"/>
<path d="M279.08 560.449C279.697 561.56 281.115 564.082 282.68 563.447C283.223 562.025 281.502 560.295 280.655 559.249C279.801 559.637 279.746 559.752 279.08 560.449Z" fill="#FFAD01"/>
<path d="M279.295 579.26C278.86 579.104 278.532 578.996 278.088 578.872C277.899 579.368 277.917 579.124 277.995 579.599C278.746 580.348 280.562 582.542 280.494 583.627C280.868 582.937 281.064 583.039 281.51 582C280.65 581.027 280.028 580.348 279.295 579.26Z" fill="#FFAD01"/>
<path d="M275.904 575.505C275.217 575.324 274.847 575.655 274.123 575.647C275.301 576.487 276.076 577.186 276.839 578.434C276.876 577.808 276.75 578.061 277.086 577.606L277.927 577.683C277.188 576.936 276.593 576.297 275.904 575.505Z" fill="#FFAD01"/>
<path d="M265.234 555.063C260.177 555.127 254.945 555.376 249.981 556.391C248.26 556.743 242.951 557.896 241.816 558.867L242.175 559.395L242.538 559.455C250.335 556.791 257.247 555.985 265.425 556.047C266.117 555.893 265.961 555.993 266.542 555.654L265.234 555.063Z" fill="#FFAD01"/>
<path d="M161.384 524.235C154.401 523.61 138.583 521.811 133.891 515.646C131.002 511.851 139.426 506.063 142.243 504.518C150.351 500.073 159.627 497.652 168.619 495.528C177.009 493.543 185.465 491.853 193.973 490.462C212.19 487.353 232.317 483.886 250.576 488.24C253.564 488.952 260.183 491.696 258.592 495.806C256.623 500.889 250.165 504.001 245.582 506.402C235.975 498.958 229.447 498.891 217.732 499.359C213.282 499.543 206.036 498.828 201.617 499.388C189.803 500.871 169.581 504.399 159.577 511.075L161.384 524.235Z" fill="#FFAD01"/>
<path d="M196.687 453.596C199.961 453.413 203.234 453.989 206.222 455.274C214.407 458.841 219.078 467.3 222.798 474.672C223.912 476.879 225.292 479.702 226.186 481.962C224.121 482.438 221.672 482.608 219.536 482.812C216.425 483.089 213.317 483.403 210.213 483.753C200.903 484.825 191.657 486.347 182.511 488.312C174.549 490.088 166.639 492.064 158.789 494.239C158.782 494.146 158.758 493.987 158.759 493.856C158.806 483.622 160.347 470.611 168.019 462.923C174.862 456.068 187.364 453.877 196.687 453.596Z" fill="#FFAD01"/>
<path d="M159.134 509.422C171.083 501.478 205.385 497.971 205.385 497.971C225.324 496.333 236.054 498.09 245.052 505.479C254.05 512.802 257.69 524.196 257.69 538.908C257.69 552.828 253.028 563.383 243.703 570.574C234.379 577.698 218.53 581.722 192.36 581.722C166.189 581.722 158.813 623.658 124.772 623.658H116.289C169.762 587.398 159.134 509.422 159.134 509.422ZM193.908 568.091C208.605 569.298 222.643 568.331 228.641 563.845C234.705 559.293 237.737 552.597 237.737 543.757C237.737 534.587 234.833 525.393 225.324 521.579C215.814 517.765 190.512 518.383 175.235 525.87L168.195 574.17C168.195 574.17 179.211 566.885 193.908 568.091Z" fill="#13532F"/>
<circle cx="221.239" cy="614.2" r="12.8254" fill="#13532F"/>
<circle cx="183.552" cy="616.216" r="10.8097" fill="#13532F"/>
</svg>
