<svg width="1080" height="1080" viewBox="0 0 1080 1080" fill="none" xmlns="http://www.w3.org/2000/svg">
<rect width="1080" height="1080" fill="#13532F"/>
<path d="M898.026 721.749H895.153L892.936 716.549H883.441L881.197 721.749H878.461L886.862 702.594H889.735L898.026 721.749ZM888.23 705.494L884.399 714.36H892.006L888.23 705.494Z" fill="#FFAD01"/>
<path d="M859.808 719.857C862.408 719.857 864.871 718.571 865.746 716.026H868.346C867.279 719.884 864.05 722.046 859.808 722.046H859.699L859.288 723.414C861.559 723.058 863.065 723.824 863.065 725.439C863.065 727.053 861.45 728.066 859.507 728.066C858.659 728.066 857.92 727.902 857.263 727.546V726.123C857.947 726.506 858.604 726.698 859.234 726.698C860.301 726.698 861.149 726.315 861.149 725.576C861.149 724.946 860.684 724.591 859.781 724.536C858.878 724.481 858.03 724.618 857.263 724.919L858.221 721.936C855.704 721.581 853.679 720.486 852.119 718.653C850.559 716.819 849.766 714.658 849.766 712.195C849.766 709.458 850.696 707.132 852.584 705.217C854.472 703.301 856.88 702.344 859.808 702.344C864.05 702.344 867.279 704.506 868.346 708.364H865.746C864.871 705.819 862.408 704.533 859.808 704.533C857.701 704.533 856.005 705.272 854.664 706.722C853.323 708.2 852.639 710.033 852.639 712.195C852.639 714.357 853.323 716.19 854.664 717.64C856.005 719.118 857.701 719.857 859.808 719.857Z" fill="#FFAD01"/>
<path d="M834.918 717.261V702.594H837.518V721.749H835.465L821.646 707.081V721.749H819.047V702.594H821.099L834.918 717.261Z" fill="#FFAD01"/>
<path d="M807.995 721.749H805.122L802.905 716.549H793.41L791.166 721.749H788.43L796.83 702.594H799.704L807.995 721.749ZM798.199 705.494L794.368 714.36H801.975L798.199 705.494Z" fill="#FFAD01"/>
<path d="M774.633 721.749V702.594H777.232V721.749H774.633Z" fill="#FFAD01"/>
<path d="M762.647 702.594V704.783H751.482V711.213H762.373V713.403H751.482V721.749H748.883V702.594H751.482H762.647Z" fill="#FFAD01"/>
<path d="M733.215 717.261V702.594H735.814V721.749H733.762L719.943 707.081V721.749H717.344V702.594H719.396L733.215 717.261Z" fill="#FFAD01"/>
<path d="M687.967 705.217C689.855 703.301 692.263 702.344 695.191 702.344C698.119 702.344 700.527 703.301 702.415 705.217C704.303 707.132 705.234 709.458 705.234 712.195C705.234 714.931 704.303 717.257 702.415 719.173C700.527 721.088 698.119 722.046 695.191 722.046C692.263 722.046 689.855 721.088 687.967 719.173C686.079 717.257 685.148 714.931 685.148 712.195C685.148 709.458 686.079 707.132 687.967 705.217ZM690.047 717.64C691.387 719.118 693.111 719.857 695.191 719.857C697.271 719.857 698.995 719.118 700.335 717.64C701.676 716.19 702.36 714.357 702.36 712.195C702.36 710.033 701.676 708.2 700.335 706.722C698.995 705.272 697.271 704.533 695.191 704.533C693.111 704.533 691.387 705.272 690.047 706.722C688.706 708.2 688.022 710.033 688.022 712.195C688.022 714.357 688.706 716.19 690.047 717.64Z" fill="#FFAD01"/>
<path d="M665.418 719.857C668.017 719.857 670.48 718.571 671.356 716.026H673.955C672.888 719.884 669.659 722.046 665.418 722.046C662.49 722.046 660.082 721.088 658.193 719.173C656.305 717.257 655.375 714.931 655.375 712.195C655.375 709.458 656.305 707.132 658.193 705.217C660.082 703.301 662.49 702.344 665.418 702.344C669.659 702.344 672.888 704.506 673.955 708.364H671.356C670.48 705.819 668.017 704.533 665.418 704.533C663.311 704.533 661.614 705.272 660.273 706.722C658.932 708.2 658.248 710.033 658.248 712.195C658.248 714.357 658.932 716.19 660.273 717.64C661.614 719.118 663.311 719.857 665.418 719.857Z" fill="#FFAD01"/>
<path d="M616.99 712.855V719.559H628.976V721.749H614.664H614.391V702.594H616.99H628.702V704.783H616.99V710.666H627.881V712.855H616.99Z" fill="#FFAD01"/>
<path d="M587.068 702.594H591.611C594.758 702.594 597.302 703.442 599.245 705.139C601.188 706.863 602.146 709.188 602.146 712.171C602.146 715.154 601.188 717.48 599.245 719.176C597.302 720.9 594.758 721.749 591.611 721.749H584.742H584.469V702.594H587.068ZM587.068 719.559H591.337C593.745 719.559 595.661 718.903 597.111 717.617C598.561 716.33 599.273 714.497 599.273 712.171C599.273 709.845 598.561 708.012 597.111 706.726C595.661 705.44 593.745 704.783 591.337 704.783H587.068V719.559Z" fill="#FFAD01"/>
<path d="M539.967 705.217C541.855 703.301 544.263 702.344 547.191 702.344C550.119 702.344 552.527 703.301 554.415 705.217C556.303 707.132 557.234 709.458 557.234 712.195C557.234 714.931 556.303 717.257 554.415 719.173C552.527 721.088 550.119 722.046 547.191 722.046C544.263 722.046 541.855 721.088 539.967 719.173C538.079 717.257 537.148 714.931 537.148 712.195C537.148 709.458 538.079 707.132 539.967 705.217ZM542.047 717.64C543.387 719.118 545.111 719.857 547.191 719.857C549.271 719.857 550.995 719.118 552.335 717.64C553.676 716.19 554.36 714.357 554.36 712.195C554.36 710.033 553.676 708.2 552.335 706.722C550.995 705.272 549.271 704.533 547.191 704.533C545.111 704.533 543.387 705.272 542.047 706.722C540.706 708.2 540.022 710.033 540.022 712.195C540.022 714.357 540.706 716.19 542.047 717.64Z" fill="#FFAD01"/>
<path d="M522.433 710.666V702.594H525.033V721.749H522.433V712.855H509.436V721.749H506.836V702.594H509.436V710.666H522.433Z" fill="#FFAD01"/>
<path d="M491.168 717.261V702.594H493.768V721.749H491.715L477.896 707.081V721.749H475.297V702.594H477.349L491.168 717.261Z" fill="#FFAD01"/>
<path d="M459.477 721.749V702.594H462.076V721.749H459.477Z" fill="#FFAD01"/>
<path d="M432.146 702.594H436.689C439.836 702.594 442.381 703.442 444.323 705.139C446.266 706.863 447.224 709.188 447.224 712.171C447.224 715.154 446.266 717.48 444.323 719.176C442.381 720.9 439.836 721.749 436.689 721.749H429.821H429.547V702.594H432.146ZM432.146 719.559H436.415C438.823 719.559 440.739 718.903 442.189 717.617C443.639 716.33 444.351 714.497 444.351 712.171C444.351 709.845 443.639 708.012 442.189 706.726C440.739 705.44 438.823 704.783 436.415 704.783H432.146V719.559Z" fill="#FFAD01"/>
<path d="M418.346 721.749H415.473L413.257 716.549H403.761L401.518 721.749H398.781L407.182 702.594H410.055L418.346 721.749ZM408.55 705.494L404.719 714.36H412.326L408.55 705.494Z" fill="#FFAD01"/>
<path d="M380.121 719.857C382.72 719.857 385.183 718.571 386.059 716.026H388.658C387.591 719.884 384.362 722.046 380.121 722.046C377.193 722.046 374.785 721.088 372.897 719.173C371.008 717.257 370.078 714.931 370.078 712.195C370.078 709.458 371.008 707.132 372.897 705.217C374.785 703.301 377.193 702.344 380.121 702.344C384.362 702.344 387.591 704.506 388.658 708.364H386.059C385.183 705.819 382.72 704.533 380.121 704.533C378.014 704.533 376.317 705.272 374.976 706.722C373.635 708.2 372.951 710.033 372.951 712.195C372.951 714.357 373.635 716.19 374.976 717.64C376.317 719.118 378.014 719.857 380.121 719.857Z" fill="#FFAD01"/>
<path d="M355.357 715.181L359.981 721.749H356.971L352.866 716.002C352.237 715.154 351.635 714.552 351.006 714.251C350.376 713.95 349.364 713.813 348.023 713.813H345.943V721.749H343.344V702.594H345.943H350.814C355.521 702.594 358.339 704.455 358.339 708.203C358.339 710.912 356.697 712.582 353.414 713.266C354.125 713.731 354.782 714.36 355.357 715.181ZM345.943 704.783V711.624H350.267C354.07 711.624 355.603 710.693 355.603 708.203C355.603 705.713 354.07 704.783 350.267 704.783H345.943Z" fill="#FFAD01"/>
<path d="M318.982 712.855V719.559H330.968V721.749H316.656H316.383V702.594H318.982H330.694V704.783H318.982V710.666H329.873V712.855H318.982Z" fill="#FFAD01"/>
<path d="M292.442 716.166L301.225 702.594H303.305V721.749H300.706V708.285L292.989 719.942H291.894L284.178 708.285V721.749H281.578V702.594H283.658L292.442 716.166Z" fill="#FFAD01"/>
<path d="M251.073 713.403V702.594H253.673V713.676C253.673 716.002 252.934 717.972 251.456 719.587C249.979 721.201 247.872 722.022 245.108 722.022C242.344 722.022 240.21 721.201 238.732 719.587C237.254 717.972 236.516 716.002 236.516 713.676V702.594H239.115V713.403C239.115 715.209 239.608 716.741 240.593 717.972C241.578 719.204 243.083 719.833 245.108 719.833C247.133 719.833 248.638 719.204 249.623 717.972C250.581 716.741 251.073 715.209 251.073 713.403Z" fill="#FFAD01"/>
<path d="M212.287 712.855V719.559H224.272V721.749H209.961H209.688V702.594H212.287H223.999V704.783H212.287V710.666H223.178V712.855H212.287Z" fill="#FFAD01"/>
<path d="M185.252 707.543C185.252 708.993 186.593 710.006 188.372 710.416C189.275 710.635 190.233 710.881 191.272 711.182C194.283 711.948 197.293 713.016 197.293 716.491C197.293 718.27 196.581 719.638 195.186 720.596C193.79 721.553 191.957 722.046 189.685 722.046C185.389 722.046 182.324 720.212 181.969 716.573H184.568C184.924 718.899 186.976 719.857 189.603 719.857C192.367 719.857 194.419 718.789 194.419 716.819C194.419 712.031 182.516 714.74 182.516 707.734C182.516 706.011 183.227 704.697 184.623 703.739C186.019 702.809 187.715 702.344 189.713 702.344C193.653 702.344 196.499 704.341 197.019 707.543H194.419C193.872 705.682 192.258 704.533 189.767 704.533C187.168 704.533 185.252 705.764 185.252 707.543Z" fill="#FFAD01"/>
<path d="M861.147 673.633C853.176 673.633 846.437 672.06 840.933 668.915C835.428 665.733 831.263 661.14 828.439 655.134C825.615 649.093 824.203 641.801 824.203 633.258C824.203 624.678 825.597 617.386 828.385 611.381C831.209 605.34 835.374 600.746 840.879 597.6C846.384 594.419 853.122 592.828 861.094 592.828C869.065 592.828 875.803 594.419 881.308 597.6C886.813 600.746 890.978 605.34 893.802 611.381C896.626 617.386 898.038 624.678 898.038 633.258C898.038 641.801 896.626 649.093 893.802 655.134C890.978 661.14 886.813 665.733 881.308 668.915C875.803 672.06 869.083 673.633 861.147 673.633ZM861.094 661.086C869.315 661.086 875.66 658.745 880.129 654.062C884.597 649.379 886.831 642.444 886.831 633.258C886.831 624.071 884.597 617.136 880.129 612.453C875.66 607.77 869.315 605.429 861.094 605.429C852.872 605.429 846.527 607.77 842.059 612.453C837.626 617.136 835.41 624.071 835.41 633.258C835.41 642.444 837.626 649.379 842.059 654.062C846.527 658.745 852.872 661.086 861.094 661.086ZM843.989 582.533C848.886 580.281 853.855 576.653 858.895 571.648H863.346C868.493 576.689 873.462 580.317 878.252 582.533L872.568 588.646C867.135 584.964 863.31 580.71 861.094 575.884C858.842 580.746 855.035 585 849.673 588.646L843.989 582.533Z" fill="#FFAD01"/>
<path d="M762.838 673.641C756.261 673.641 750.649 672.551 746.002 670.37C741.354 668.154 737.851 665.098 735.492 661.201C733.133 657.305 731.953 652.819 731.953 647.743C731.953 645.777 732.15 643.65 732.543 641.362L743.267 638.574C742.588 640.79 742.248 642.827 742.248 644.686C742.248 647.796 743.035 650.584 744.607 653.051C746.216 655.517 748.575 657.466 751.685 658.896C754.831 660.325 758.62 661.04 763.053 661.04C767.163 661.04 770.524 660.486 773.133 659.378C775.778 658.234 777.691 656.733 778.87 654.874C780.086 653.015 780.694 650.96 780.694 648.708C780.694 646.241 780.175 644.132 779.139 642.381C778.138 640.629 776.458 639.146 774.098 637.93C771.739 636.679 768.575 635.678 764.608 634.927L754.581 633.319C747.503 632.211 742.195 629.941 738.656 626.509C735.152 623.078 733.401 618.806 733.401 613.694C733.401 609.19 734.563 605.383 736.886 602.273C739.21 599.127 742.409 596.768 746.484 595.195C750.559 593.622 755.26 592.836 760.586 592.836C766.341 592.836 771.435 593.747 775.868 595.571C780.336 597.358 783.857 600.2 786.431 604.096C789.04 607.957 790.345 612.836 790.345 618.734C790.345 620.414 790.238 622.166 790.023 623.989L779.031 626.938C779.675 624.472 779.996 622.273 779.996 620.343C779.996 616.697 779.031 613.766 777.101 611.549C775.206 609.297 772.776 607.706 769.809 606.777C766.842 605.812 763.642 605.329 760.211 605.329C756.779 605.329 753.884 605.812 751.524 606.777C749.201 607.706 747.467 608.993 746.323 610.638C745.179 612.246 744.607 614.105 744.607 616.214C744.607 619.396 745.59 622.005 747.556 624.043C749.523 626.08 752.972 627.564 757.905 628.493L767.449 630.048C775.957 631.442 782.177 633.909 786.109 637.448C790.041 640.951 792.007 645.473 792.007 651.013C792.007 655.768 790.72 659.861 788.147 663.292C785.573 666.688 782.07 669.262 777.637 671.014C773.205 672.765 768.272 673.641 762.838 673.641Z" fill="#FFAD01"/>
<path d="M620.536 594.867L662.682 658.246H662.95L662.789 656.637C662.467 653.17 662.306 649.988 662.306 647.093V594.974L674.424 594.867V671.651H662.896L620.429 608.379H620.161L620.322 610.149C620.572 613.402 620.697 616.19 620.697 618.514V671.651H608.633V594.867H620.536Z" fill="white"/>
<path d="M557.398 671.651V594.867H569.624V671.651H557.398Z" fill="white"/>
<path d="M485.735 671.651V607.468H459.891V594.867H523.752V607.468H497.961V671.651H485.735Z" fill="white"/>
<path d="M418.79 671.651C418.218 670.364 417.682 668.863 417.181 667.147C416.716 665.431 416.18 662.839 415.573 659.372L414.607 653.742C413.678 648.773 411.944 645.037 409.406 642.535C406.868 640.033 403.222 638.782 398.468 638.782H380.827V671.651H368.602V594.867H402.972C411.122 594.867 417.467 596.583 422.007 600.015C426.582 603.446 428.87 608.808 428.87 616.101C428.87 622.035 427.137 626.682 423.669 630.042C420.202 633.402 415.018 635.35 408.119 635.886L408.173 636.047C413.177 636.548 417.127 638.138 420.023 640.819C422.954 643.5 424.849 647.182 425.707 651.865L426.779 658.031C427.601 662.821 428.888 667.361 430.64 671.651H418.79ZM402.114 632.991C407.226 632.991 411.122 631.918 413.803 629.774C416.484 627.593 417.825 624.126 417.825 619.371C417.825 614.975 416.448 611.9 413.696 610.149C410.943 608.362 407.047 607.468 402.007 607.468H380.827V632.991H402.114Z" fill="white"/>
<path d="M278.758 594.867H332.753V607.2H290.983V629.077H324.817V634.492L290.983 634.439V659.425H333.021V671.651H278.758V594.867Z" fill="white"/>
<path d="M183.781 594.867H214.72C224.514 594.867 231.878 596.869 236.811 600.873C241.744 604.84 244.211 610.81 244.211 618.782C244.211 626.324 241.655 632.044 236.543 635.94C231.431 639.801 224.121 641.731 214.613 641.731H196.007V671.651H183.781V594.867ZM214.773 635.94C220.493 635.94 224.997 634.725 228.286 632.294C231.61 629.827 233.272 626.199 233.272 621.409C233.272 616.44 231.717 612.883 228.607 610.739C225.497 608.558 221.333 607.468 216.114 607.468H196.007V635.94H214.773Z" fill="white"/>
<path d="M615.849 466.633C617.292 466.141 621.397 464.931 621.994 463.473C620.469 460.957 615.533 465.251 613.81 465.95C612.766 465.74 611.347 465.783 610.509 465.365L610.725 465.024C609.876 464.742 609.827 464.506 609.677 463.748L608.089 464.835C606.895 464.829 605.648 464.899 604.513 464.545C603.923 464.857 603.945 464.814 603.586 465.37C603.785 465.856 603.661 465.702 603.847 465.905C604.893 465.975 607.305 466.048 607.984 466.63L609.24 466.252C609.392 466.471 609.52 466.705 609.712 466.862C610.834 466.641 612.739 467.153 613.947 467.39C614.441 468.723 614.66 469.351 615.391 470.608C616.127 469.837 616.187 469.71 617.13 469.283C616.997 469.019 616.837 468.72 616.699 468.457C617.588 467.846 619.839 468.711 620.304 469.441C620.711 469.405 621.618 469.49 622.067 469.518C623.318 469.924 624.829 470.365 626.016 470.883L626.994 473.906C627.181 472.585 626.637 472.213 627.132 471.452L627.872 471.686C629.21 472.085 630.758 473.007 631.975 473.739L632.268 475.398L632.625 474.796C633.374 474.605 632.979 474.626 633.88 475.084C635.446 475.617 636.363 476.415 637.608 477.496C638.158 479.793 638.606 482.79 640.486 484.312L641.016 484.334C641.956 482.944 640.412 480.018 639.716 478.696C638.89 477.916 638.692 478.007 638.538 477.126C637.621 475.652 636.789 475.441 635.213 474.581L635.141 474.158L632.339 472.309C634.004 472.359 638.043 472.838 638.87 471.186L638.492 470.755C635.876 469.833 633.657 470.76 631.109 471.555C629.816 471.06 628.518 470.575 627.216 470.102C629.215 469.715 632.042 469.753 633.706 468.808L633.853 468.059C632.881 465.511 627.554 468.461 625.938 469.285L622.14 467.999C623.725 467.651 627.197 467.227 627.788 465.512C626.106 463.784 621.779 466.286 620.229 467.502C618.572 467.096 617.538 466.864 615.849 466.633Z" fill="#FFAD01"/>
<path d="M601.921 479.788C603.486 479.804 607.213 480.093 608.316 478.925C607.495 476.677 601.846 478.186 600.125 478.835L596.873 477.089C596.555 477.002 595.658 476.472 595.185 476.286C591.875 473.798 581.407 471.003 577.307 470.456L577.122 470.767C577.526 471.274 577.365 471.142 577.889 471.45C583.193 472.722 589.459 474.478 594.281 477.113C594.253 479.399 594.418 482.879 596.598 484.225L597.049 484.13C597.764 482.788 597.026 480.913 596.596 479.503C596.474 479.103 596.35 478.704 596.222 478.307L599.51 480.011C599.407 481.972 599.41 486.439 601.345 487.471C603.086 486.867 601.506 482.157 601.141 480.766C602.109 481.512 603.238 482.319 604.081 483.183C604.129 485.3 603.884 489.957 605.521 491.354L605.976 491.289C607.257 489.395 606.14 485.624 605.385 483.605C606.264 484.272 607.726 485.534 608.31 486.45C609.205 485.779 608.73 485.938 609.732 485.816C608.869 484.713 608.103 484.116 607.052 483.217C608.594 483.399 612.576 484.134 613.778 483.062C613.315 480.684 607.055 481.735 605.318 482.101C604.335 481.319 602.989 480.491 601.921 479.788Z" fill="#FFAD01"/>
<path d="M607.05 483.214C606.456 483.003 606.022 482.998 605.435 483.238L605.383 483.602C606.261 484.269 607.723 485.531 608.308 486.447C609.203 485.776 608.728 485.935 609.73 485.813C608.867 484.71 608.101 484.113 607.05 483.214Z" fill="#FFAD01"/>
<path d="M619.017 496.309C620.682 497.062 623.375 498.604 625.098 498.242L625.317 497.865C624.53 495.807 620.203 494.056 618.137 494.38C617.645 495.527 617.428 495.415 617.015 496.176C616.814 498.422 615.932 504.256 617.889 505.548L618.334 505.261C619.461 502.802 618.796 499.724 618.407 497.116L620.697 500.792C620.942 504.249 619.594 507.844 620.531 510.307C621.206 510.963 620.82 510.802 621.696 510.88C622.638 509.981 622.914 507.181 623.005 505.877L623.381 506.002C624.416 508.205 624.271 514.43 626.503 515.562C627.325 515.486 626.988 515.649 627.559 515.081C628.07 512.915 626.341 509.785 625.343 507.923C626.351 508.458 627.676 509.434 628.778 508.946C628.661 506.916 623.852 504.631 622.011 502.049L621.796 501.745C623.184 502.416 626.12 504.089 627.449 503.715L627.62 503.264C626.974 500.533 623.595 500.894 621.682 499.453C620.943 498.897 619.631 497.11 619.017 496.309Z" fill="#FFAD01"/>
<path d="M615.706 491.369C617.574 491.89 620.54 492.944 622.311 492.384L622.412 491.923C620.341 489.967 616.899 489.603 614.16 489.628L613.232 489.544C612.861 490.046 613 489.766 612.959 490.457C612.572 493.04 612.268 497.789 613.765 499.969L614.282 500.174C615.906 498.711 614.65 493.74 614.271 491.743C614.185 491.219 614.165 491.487 614.373 490.941C614.864 491.077 615.226 491.197 615.706 491.369Z" fill="#FFAD01"/>
<path d="M611.917 487.216C613.349 487.613 617.058 488.821 617.96 487.33C616.758 485.029 611.959 485.341 609.739 485.808C608.738 485.929 609.213 485.771 608.318 486.442C608.466 489.175 608.4 493.396 610.017 495.537L610.406 495.664C611.623 493.559 610.482 489.681 609.951 487.373C610.75 487.383 611.159 487.017 611.917 487.216Z" fill="#FFAD01"/>
<path d="M643.428 479.756C644.719 479.996 647.154 480.815 647.763 479.347C646.764 477.656 644.132 477.942 642.45 477.952C640.731 477.753 640.132 477.509 638.712 476.527L638.591 477.11C638.745 477.991 638.943 477.901 639.769 478.68C641.726 479.354 641.836 479.665 642.951 481.445C643.427 482.906 645.733 485.898 647.622 485.449C648.769 483.618 644.693 480.747 643.428 479.756Z" fill="#FFAD01"/>
<path d="M642.413 477.973C640.694 477.774 640.094 477.53 638.674 476.548L638.553 477.131C638.707 478.013 638.905 477.922 639.731 478.702C641.688 479.375 641.798 479.686 642.914 481.467C642.825 479.703 642.379 480.231 641.885 478.803L642.413 477.973Z" fill="#FFAD01"/>
<path d="M604.623 464.681C606.186 463.718 608.132 462.494 609.05 460.921L609.002 460.415C606.173 458.839 604.008 464.707 599.995 464.639L601.39 465.269C600.749 465.643 601.105 465.532 600.341 465.702C602.988 465.867 603.172 469.299 605.074 470.915C605.829 471.556 606.624 472.021 607.372 471.201C607.241 469.719 605.029 467.082 603.988 465.803C603.801 465.6 603.907 465.805 603.708 465.319C604.067 464.763 604.034 464.993 604.623 464.681Z" fill="#FFAD01"/>
<path d="M627.901 471.682L627.162 471.448C626.666 472.21 627.211 472.581 627.023 473.902C627.42 475.34 629.273 479.309 631.091 478.64C631.753 476.906 628.935 473.205 627.901 471.682Z" fill="#FFAD01"/>
<path d="M622.092 469.49C621.643 469.463 620.737 469.377 620.329 469.414C620.925 471.287 622.499 475.631 624.724 475.856C626.244 474.629 622.918 470.616 622.092 469.49Z" fill="#FFAD01"/>
<path d="M638.688 476.53C638.592 476.392 638.47 476.089 638.395 475.922C639.804 475.275 643.676 476.762 644.471 475.399L644.206 474.814C641.708 472.645 638.158 475.101 635.17 474.145L635.243 474.568C636.818 475.428 637.65 475.638 638.567 477.113L638.688 476.53Z" fill="#FFAD01"/>
<path d="M609.27 466.27L608.014 466.648C608.502 468.273 611.43 473.666 613.4 471.903C613.465 470.096 610.996 468.067 609.742 466.879C609.55 466.723 609.422 466.489 609.27 466.27Z" fill="#FFAD01"/>
<path d="M633.907 475.08C633.006 474.623 633.401 474.601 632.652 474.792L632.295 475.395C632.605 476.746 633.976 481.81 635.901 481.19C636.695 479.556 634.69 476.503 633.907 475.08Z" fill="#FFAD01"/>
<path d="M596.877 477.088C598.455 476.44 602.054 476.777 603.091 475.362C601.344 473.583 596.949 475.026 595.188 476.285C595.662 476.471 596.559 477.001 596.877 477.088Z" fill="#FFAD01"/>
<path d="M610.739 465.042C612.02 464.547 615.773 463.372 615.106 461.546C613.458 460.668 610.947 462.847 609.691 463.766C609.841 464.524 609.891 464.76 610.739 465.042Z" fill="#FFAD01"/>
<path d="M615.422 470.594C616.103 471.819 617.668 474.604 619.396 473.903C619.996 472.333 618.096 470.423 617.161 469.269C616.218 469.696 616.158 469.824 615.422 470.594Z" fill="#FFAD01"/>
<path d="M615.663 491.361C615.183 491.19 614.821 491.07 614.33 490.934C614.122 491.48 614.142 491.211 614.228 491.736C615.057 492.562 617.062 494.985 616.987 496.183C617.4 495.421 617.616 495.534 618.109 494.386C617.159 493.313 616.473 492.563 615.663 491.361Z" fill="#FFAD01"/>
<path d="M611.917 487.218C611.158 487.019 610.75 487.384 609.951 487.375C611.251 488.303 612.106 489.074 612.949 490.452C612.99 489.761 612.851 490.041 613.222 489.539L614.15 489.623C613.334 488.799 612.678 488.093 611.917 487.218Z" fill="#FFAD01"/>
<path d="M600.13 464.65C594.548 464.721 588.771 464.996 583.291 466.116C581.391 466.505 575.529 467.778 574.277 468.849L574.673 469.433L575.073 469.499C583.681 466.558 591.313 465.668 600.341 465.737C601.106 465.566 600.933 465.676 601.574 465.302L600.13 464.65Z" fill="#FFAD01"/>
<path d="M485.476 430.607C477.765 429.918 460.303 427.931 455.122 421.125C451.932 416.934 461.233 410.544 464.343 408.839C473.294 403.931 483.536 401.258 493.464 398.913C502.726 396.722 512.062 394.856 521.456 393.32C541.568 389.888 563.789 386.06 583.947 390.867C587.246 391.654 594.554 394.683 592.797 399.221C590.624 404.833 583.494 408.268 578.433 410.919C567.827 402.7 560.62 402.627 547.686 403.143C542.773 403.346 534.773 402.557 529.894 403.175C516.851 404.812 494.526 408.707 483.481 416.078L485.476 430.607Z" fill="#FFAD01"/>
<path d="M524.465 352.622C528.08 352.42 531.693 353.056 534.993 354.474C544.029 358.412 549.186 367.751 553.293 375.89C554.523 378.327 556.047 381.444 557.034 383.939C554.753 384.464 552.05 384.652 549.692 384.877C546.256 385.183 542.825 385.53 539.399 385.916C529.12 387.1 518.912 388.779 508.814 390.949C500.024 392.91 491.291 395.092 482.624 397.493C482.616 397.39 482.59 397.214 482.591 397.07C482.643 385.772 484.344 371.406 492.815 362.919C500.37 355.35 514.172 352.932 524.465 352.622Z" fill="#FFAD01"/>
<path d="M482.998 414.259C496.191 405.488 534.061 401.615 534.061 401.615C556.074 399.807 567.921 401.747 577.855 409.905C587.789 417.989 591.808 430.57 591.808 446.812C591.808 462.18 586.661 473.833 576.367 481.772C566.072 489.638 548.574 494.081 519.681 494.081C490.787 494.081 482.643 540.38 445.06 540.38H435.695C494.732 500.347 482.998 414.259 482.998 414.259ZM521.39 479.032C537.617 480.364 553.114 479.296 559.737 474.343C566.432 469.318 569.78 461.925 569.78 452.165C569.78 442.041 566.573 431.891 556.074 427.68C545.575 423.47 517.641 424.151 500.775 432.418L493.002 485.743C493.002 485.743 505.164 477.7 521.39 479.032Z" fill="white"/>
<circle cx="551.558" cy="529.933" r="14.1598" fill="white"/>
<circle cx="509.95" cy="532.169" r="11.9343" fill="white"/>
</svg>
